<svg xmlns="http://www.w3.org/2000/svg" viewBox="0 0 3000 860" role="img" aria-labelledby="title desc" xml:space="preserve">
  <title id="title">Heph</title>
  <desc id="desc">The Heph lockup, switching from black in light mode to white in dark mode.</desc>
  <style>
    :root {
      color-scheme: light dark;
    }

    path {
      fill: #000000;
      fill-rule: evenodd;
      clip-rule: evenodd;
      stroke-linejoin: round;
      stroke-miterlimit: 2;
    }

    @media (prefers-color-scheme: dark) {
      path {
        fill: #ffffff;
      }
    }
  </style>
  <g transform="matrix(1,0,0,1,0,-590.351212)">
    <g transform="matrix(0.955154,0,0,0.955154,1061.324239,590.351212)">
      <path d="M165,397.5L165,700L55,700L55,0L165,0L165,302.5L386,302.5L386,-0L496,-0L496,700L386,700L386,397.5L165,397.5ZM1919.7,700L1919.7,451C1919.7,355 1873.7,289 1808.7,289C1743.7,289 1698.7,355 1698.7,451L1698.7,700L1588.7,700L1588.7,0L1698.7,0L1698.7,289C1698.7,267 1748.7,184 1826.7,184C1948.7,184 2029.7,289 2029.7,451L2029.7,700L1919.7,700ZM1006.3005,486.0227L678.328,486.0227C688.6102,561.5739 730.6375,611.0227 786.9,611.0227C825.4055,611.0227 857.2434,587.8614 876.8006,549.0227L995.0657,549.0227C966.0934,652.8978 890.0234,716.0227 786.9,716.0227C653.9,716.0227 565.9,611.0227 565.9,449.0227C565.9,288.0227 653.9,184.0227 786.9,184.0227C919.9,184.0227 1007.9,288.0227 1007.9,449.0227C1007.9,461.7135 1007.36,474.0545 1006.3005,486.0227ZM682.2693,391.0227L891.5307,391.0227C876.78,328.2177 837.6256,288.0227 786.9,288.0227C736.1744,288.0227 697.02,328.2177 682.2693,391.0227ZM1077.8,900.0227L1077.8,200.0227L1181.8,200.0227L1187.8,288.0227C1187.8,267.0227 1237.8,184.0227 1315.8,184.0227C1437.8,184.0227 1518.8,288.0227 1518.8,449.0227C1518.8,611.0227 1437.8,716.0227 1315.8,716.0227C1237.8,716.0227 1187.8,633.0227 1187.8,611.0227L1187.8,900.0227L1077.8,900.0227ZM1297.8,611.0227C1362.8,611.0227 1408.8,545.0227 1408.8,449.0227C1408.8,354.0227 1362.8,288.0227 1297.8,288.0227C1232.8,288.0227 1187.8,354.0227 1187.8,449.0227C1187.8,545.0227 1232.8,611.0227 1297.8,611.0227ZM-469.615,525L-469.615,-0L-178.0806,-0L-178.0806,700L-294.615,700L-469.615,525ZM-1111.1553,-0L-586.1553,-0L-586.1553,525L-761.1553,700L-1111.1553,700L-1111.1553,-0Z" />
    </g>
  </g>
</svg>
